<svg xmlns="http://www.w3.org/2000/svg" viewBox="0 0 900 600" width="900" height="600"><rect width="900" height="600" fill="#FFFFFF"/><rect x="95" y="110" width="50" height="50" rx="6" fill="none" stroke="rgba(25,32,38,.13)" stroke-width="2"/><rect x="161" y="110" width="50" height="50" rx="6" fill="none" stroke="rgba(25,32,38,.13)" stroke-width="2"/><path d="M174,136 l9,9 l16,-18" fill="none" stroke="rgba(25,32,38,.35)" stroke-width="3" stroke-linecap="round" stroke-linejoin="round"/><rect x="227" y="110" width="50" height="50" rx="6" fill="none" stroke="rgba(25,32,38,.13)" stroke-width="2"/><rect x="293" y="110" width="50" height="50" rx="6" fill="none" stroke="rgba(25,32,38,.13)" stroke-width="2"/><rect x="359" y="110" width="50" height="50" rx="6" fill="none" stroke="rgba(25,32,38,.13)" stroke-width="2"/><rect x="425" y="110" width="50" height="50" rx="6" fill="none" stroke="rgba(25,32,38,.13)" stroke-width="2"/><rect x="491" y="110" width="50" height="50" rx="6" fill="none" stroke="rgba(25,32,38,.13)" stroke-width="2"/><rect x="557" y="110" width="50" height="50" rx="6" fill="none" stroke="rgba(25,32,38,.13)" stroke-width="2"/><path d="M570,136 l9,9 l16,-18" fill="none" stroke="rgba(25,32,38,.35)" stroke-width="3" stroke-linecap="round" stroke-linejoin="round"/><rect x="623" y="110" width="50" height="50" rx="6" fill="none" stroke="rgba(25,32,38,.13)" stroke-width="2"/><rect x="689" y="110" width="50" height="50" rx="6" fill="none" stroke="rgba(25,32,38,.13)" stroke-width="2"/><rect x="755" y="110" width="50" height="50" rx="6" fill="none" stroke="rgba(25,32,38,.13)" stroke-width="2"/><rect x="95" y="176" width="50" height="50" rx="6" fill="none" stroke="rgba(25,32,38,.13)" stroke-width="2"/><rect x="161" y="176" width="50" height="50" rx="6" fill="none" stroke="rgba(25,32,38,.13)" stroke-width="2"/><rect x="227" y="176" width="50" height="50" rx="6" fill="none" stroke="rgba(25,32,38,.13)" stroke-width="2"/><rect x="293" y="176" width="50" height="50" rx="6" fill="none" stroke="rgba(25,32,38,.13)" stroke-width="2"/><rect x="359" y="176" width="50" height="50" rx="6" fill="none" stroke="rgba(25,32,38,.13)" stroke-width="2"/><path d="M372,202 l9,9 l16,-18" fill="none" stroke="rgba(25,32,38,.35)" stroke-width="3" stroke-linecap="round" stroke-linejoin="round"/><rect x="425" y="176" width="50" height="50" rx="6" fill="none" stroke="rgba(25,32,38,.13)" stroke-width="2"/><rect x="491" y="176" width="50" height="50" rx="6" fill="none" stroke="rgba(25,32,38,.13)" stroke-width="2"/><rect x="557" y="176" width="50" height="50" rx="6" fill="none" stroke="rgba(25,32,38,.13)" stroke-width="2"/><rect x="623" y="176" width="50" height="50" rx="6" fill="none" stroke="rgba(25,32,38,.13)" stroke-width="2"/><rect x="689" y="176" width="50" height="50" rx="6" fill="none" stroke="rgba(25,32,38,.13)" stroke-width="2"/><rect x="755" y="176" width="50" height="50" rx="6" fill="none" stroke="rgba(25,32,38,.13)" stroke-width="2"/><rect x="95" y="242" width="50" height="50" rx="6" fill="none" stroke="rgba(25,32,38,.13)" stroke-width="2"/><rect x="161" y="242" width="50" height="50" rx="6" fill="none" stroke="rgba(25,32,38,.13)" stroke-width="2"/><rect x="227" y="242" width="50" height="50" rx="6" fill="none" stroke="rgba(25,32,38,.13)" stroke-width="2"/><rect x="293" y="242" width="50" height="50" rx="6" fill="none" stroke="rgba(25,32,38,.13)" stroke-width="2"/><path d="M306,268 l9,9 l16,-18" fill="none" stroke="rgba(25,32,38,.35)" stroke-width="3" stroke-linecap="round" stroke-linejoin="round"/><rect x="359" y="242" width="50" height="50" rx="6" fill="none" stroke="rgba(25,32,38,.13)" stroke-width="2"/><rect x="425" y="242" width="50" height="50" rx="6" fill="none" stroke="rgba(25,32,38,.13)" stroke-width="2"/><rect x="490" y="241" width="52" height="52" rx="6" fill="#4169E1"/><path d="M504,268 l9,9 l16,-18" fill="none" stroke="#FFFFFF" stroke-width="4" stroke-linecap="round" stroke-linejoin="round"/><rect x="557" y="242" width="50" height="50" rx="6" fill="none" stroke="rgba(25,32,38,.13)" stroke-width="2"/><rect x="623" y="242" width="50" height="50" rx="6" fill="none" stroke="rgba(25,32,38,.13)" stroke-width="2"/><rect x="689" y="242" width="50" height="50" rx="6" fill="none" stroke="rgba(25,32,38,.13)" stroke-width="2"/><path d="M702,268 l9,9 l16,-18" fill="none" stroke="rgba(25,32,38,.35)" stroke-width="3" stroke-linecap="round" stroke-linejoin="round"/><rect x="755" y="242" width="50" height="50" rx="6" fill="none" stroke="rgba(25,32,38,.13)" stroke-width="2"/><rect x="95" y="308" width="50" height="50" rx="6" fill="none" stroke="rgba(25,32,38,.13)" stroke-width="2"/><rect x="161" y="308" width="50" height="50" rx="6" fill="none" stroke="rgba(25,32,38,.13)" stroke-width="2"/><rect x="227" y="308" width="50" height="50" rx="6" fill="none" stroke="rgba(25,32,38,.13)" stroke-width="2"/><path d="M240,334 l9,9 l16,-18" fill="none" stroke="rgba(25,32,38,.35)" stroke-width="3" stroke-linecap="round" stroke-linejoin="round"/><rect x="293" y="308" width="50" height="50" rx="6" fill="none" stroke="rgba(25,32,38,.13)" stroke-width="2"/><rect x="359" y="308" width="50" height="50" rx="6" fill="none" stroke="rgba(25,32,38,.13)" stroke-width="2"/><rect x="425" y="308" width="50" height="50" rx="6" fill="none" stroke="rgba(25,32,38,.13)" stroke-width="2"/><rect x="491" y="308" width="50" height="50" rx="6" fill="none" stroke="rgba(25,32,38,.13)" stroke-width="2"/><rect x="557" y="308" width="50" height="50" rx="6" fill="none" stroke="rgba(25,32,38,.13)" stroke-width="2"/><rect x="623" y="308" width="50" height="50" rx="6" fill="none" stroke="rgba(25,32,38,.13)" stroke-width="2"/><rect x="689" y="308" width="50" height="50" rx="6" fill="none" stroke="rgba(25,32,38,.13)" stroke-width="2"/><rect x="755" y="308" width="50" height="50" rx="6" fill="none" stroke="rgba(25,32,38,.13)" stroke-width="2"/><rect x="95" y="374" width="50" height="50" rx="6" fill="none" stroke="rgba(25,32,38,.13)" stroke-width="2"/><rect x="161" y="374" width="50" height="50" rx="6" fill="none" stroke="rgba(25,32,38,.13)" stroke-width="2"/><rect x="227" y="374" width="50" height="50" rx="6" fill="none" stroke="rgba(25,32,38,.13)" stroke-width="2"/><rect x="293" y="374" width="50" height="50" rx="6" fill="none" stroke="rgba(25,32,38,.13)" stroke-width="2"/><rect x="359" y="374" width="50" height="50" rx="6" fill="none" stroke="rgba(25,32,38,.13)" stroke-width="2"/><rect x="425" y="374" width="50" height="50" rx="6" fill="none" stroke="rgba(25,32,38,.13)" stroke-width="2"/><path d="M438,400 l9,9 l16,-18" fill="none" stroke="rgba(25,32,38,.35)" stroke-width="3" stroke-linecap="round" stroke-linejoin="round"/><rect x="491" y="374" width="50" height="50" rx="6" fill="none" stroke="rgba(25,32,38,.13)" stroke-width="2"/><rect x="557" y="374" width="50" height="50" rx="6" fill="none" stroke="rgba(25,32,38,.13)" stroke-width="2"/><rect x="623" y="374" width="50" height="50" rx="6" fill="none" stroke="rgba(25,32,38,.13)" stroke-width="2"/><rect x="689" y="374" width="50" height="50" rx="6" fill="none" stroke="rgba(25,32,38,.13)" stroke-width="2"/><rect x="755" y="374" width="50" height="50" rx="6" fill="none" stroke="rgba(25,32,38,.13)" stroke-width="2"/><path d="M768,400 l9,9 l16,-18" fill="none" stroke="rgba(25,32,38,.35)" stroke-width="3" stroke-linecap="round" stroke-linejoin="round"/><rect x="95" y="440" width="50" height="50" rx="6" fill="none" stroke="rgba(25,32,38,.13)" stroke-width="2"/><path d="M108,466 l9,9 l16,-18" fill="none" stroke="rgba(25,32,38,.35)" stroke-width="3" stroke-linecap="round" stroke-linejoin="round"/><rect x="161" y="440" width="50" height="50" rx="6" fill="none" stroke="rgba(25,32,38,.13)" stroke-width="2"/><rect x="227" y="440" width="50" height="50" rx="6" fill="none" stroke="rgba(25,32,38,.13)" stroke-width="2"/><rect x="293" y="440" width="50" height="50" rx="6" fill="none" stroke="rgba(25,32,38,.13)" stroke-width="2"/><rect x="359" y="440" width="50" height="50" rx="6" fill="none" stroke="rgba(25,32,38,.13)" stroke-width="2"/><rect x="425" y="440" width="50" height="50" rx="6" fill="none" stroke="rgba(25,32,38,.13)" stroke-width="2"/><rect x="491" y="440" width="50" height="50" rx="6" fill="none" stroke="rgba(25,32,38,.13)" stroke-width="2"/><rect x="557" y="440" width="50" height="50" rx="6" fill="none" stroke="rgba(25,32,38,.13)" stroke-width="2"/><rect x="623" y="440" width="50" height="50" rx="6" fill="none" stroke="rgba(25,32,38,.13)" stroke-width="2"/><path d="M636,466 l9,9 l16,-18" fill="none" stroke="rgba(25,32,38,.35)" stroke-width="3" stroke-linecap="round" stroke-linejoin="round"/><rect x="689" y="440" width="50" height="50" rx="6" fill="none" stroke="rgba(25,32,38,.13)" stroke-width="2"/><rect x="755" y="440" width="50" height="50" rx="6" fill="none" stroke="rgba(25,32,38,.13)" stroke-width="2"/></svg>
